<svg xmlns="http://www.w3.org/2000/svg" viewBox="0 0 512 512" role="img" aria-labelledby="title desc">
  <title id="title">F'Yedk Pub</title>
  <desc id="desc">Logo F'Yedk Pub pour la publicite locale a Tanger</desc>
  <defs>
    <linearGradient id="gold" x1="90" y1="420" x2="420" y2="70" gradientUnits="userSpaceOnUse">
      <stop stop-color="#8C664B" />
      <stop offset="0.55" stop-color="#A67C52" />
      <stop offset="1" stop-color="#F2C572" />
    </linearGradient>
  </defs>
  <rect width="512" height="512" rx="112" fill="#F8F5F2" />
  <circle cx="256" cy="256" r="188" fill="url(#gold)" opacity="0.16" />
  <path
    d="M151 154h210c16 0 29 13 29 29v146c0 16-13 29-29 29H151c-16 0-29-13-29-29V183c0-16 13-29 29-29Z"
    fill="#fff"
    stroke="#A67C52"
    stroke-width="18"
  />
  <path d="M154 211h204" stroke="#A67C52" stroke-width="18" stroke-linecap="round" />
  <path d="M183 262h146" stroke="#1F2937" stroke-width="18" stroke-linecap="round" />
  <path d="M183 310h96" stroke="#1F2937" stroke-width="18" stroke-linecap="round" />
  <path
    d="M342 294c38 0 68 23 68 52s-30 52-68 52c-12 0-24-2-34-7l-44 20 15-39c-4-8-6-17-6-26 0-29 31-52 69-52Z"
    fill="#A67C52"
  />
  <path d="M316 346h52" stroke="#fff" stroke-width="16" stroke-linecap="round" />
  <path d="M342 320v52" stroke="#fff" stroke-width="16" stroke-linecap="round" />
</svg>
